<?xml version="1.0" encoding="UTF-8"?>
<svg width="48px" height="48px" viewBox="0 0 48 48" version="1.1" xmlns="http://www.w3.org/2000/svg" xmlns:xlink="http://www.w3.org/1999/xlink">
    <!-- Generator: Sketch 52.6 (67491) - http://www.bohemiancoding.com/sketch -->
    <title>Instagram-color</title>
    <desc>Created with Sketch.</desc>
    <g id="Page-1" stroke="none" stroke-width="1" fill="none" fill-rule="evenodd">
        <g id="Desktop" transform="translate(-488.000000, -920.000000)" fill="#FFFFFF">
            <path d="M512.000048,920 C518.518009,920 519.335314,920.027628 521.895169,920.144427 C524.449689,920.260939 526.194335,920.666687 527.720912,921.260017 C529.299124,921.873258 530.637546,922.693897 531.971872,924.028128 C533.306103,925.362454 534.126742,926.700876 534.740079,928.279088 C535.333313,929.805665 535.739061,931.550311 535.855573,934.104831 C535.972372,936.664686 536,937.481991 536,944.000048 C536,950.518009 535.972372,951.335314 535.855573,953.895169 C535.739061,956.449689 535.333313,958.194335 534.740079,959.720912 C534.126742,961.299124 533.306103,962.637546 531.971872,963.971872 C530.637546,965.306103 529.299124,966.126742 527.720912,966.740079 C526.194335,967.333313 524.449689,967.739061 521.895169,967.855573 C519.335314,967.972372 518.518009,968 512.000048,968 C505.481991,968 504.664686,967.972372 502.104831,967.855573 C499.550311,967.739061 497.805665,967.333313 496.279088,966.740079 C494.700876,966.126742 493.362454,965.306103 492.028128,963.971872 C490.693897,962.637546 489.873258,961.299124 489.260017,959.720912 C488.666687,958.194335 488.260939,956.449689 488.144427,953.895169 C488.027628,951.335314 488,950.518009 488,944.000048 C488,937.481991 488.027628,936.664686 488.144427,934.104831 C488.260939,931.550311 488.666687,929.805665 489.260017,928.279088 C489.873258,926.700876 490.693897,925.362454 492.028128,924.028128 C493.362454,922.693897 494.700876,921.873258 496.279088,921.260017 C497.805665,920.666687 499.550311,920.260939 502.104831,920.144427 C504.664686,920.027628 505.481991,920 512.000048,920 Z M512.000048,924.324317 C505.59174,924.324317 504.832644,924.348801 502.30194,924.464266 C499.961964,924.570966 498.691182,924.961946 497.845487,925.290621 C496.725229,925.725997 495.925738,926.246066 495.08595,927.08595 C494.246066,927.925738 493.725997,928.725229 493.290621,929.845487 C492.961946,930.691182 492.570966,931.961964 492.464266,934.30194 C492.348801,936.832644 492.324317,937.59174 492.324317,944.000048 C492.324317,950.40826 492.348801,951.167356 492.464266,953.69806 C492.570966,956.038036 492.961946,957.308818 493.290621,958.154513 C493.725997,959.274771 494.246161,960.074262 495.08595,960.91405 C495.925738,961.753934 496.725229,962.274003 497.845487,962.709379 C498.691182,963.038054 499.961964,963.429034 502.30194,963.535734 C504.832358,963.651199 505.591264,963.675683 512.000048,963.675683 C518.408736,963.675683 519.167737,963.651199 521.69806,963.535734 C524.038036,963.429034 525.308818,963.038054 526.154513,962.709379 C527.274771,962.274003 528.074262,961.753934 528.91405,960.91405 C529.753934,960.074262 530.274003,959.274771 530.709379,958.154513 C531.038054,957.308818 531.429034,956.038036 531.535734,953.69806 C531.651199,951.167356 531.675683,950.40826 531.675683,944.000048 C531.675683,937.59174 531.651199,936.832644 531.535734,934.30194 C531.429034,931.961964 531.038054,930.691182 530.709379,929.845487 C530.274003,928.725229 529.753934,927.925738 528.91405,927.08595 C528.074262,926.246066 527.274771,925.725997 526.154513,925.290621 C525.308818,924.961946 524.038036,924.570966 521.69806,924.464266 C519.167356,924.348801 518.40826,924.324317 512.000048,924.324317 Z M512.000048,931.675683 C518.806576,931.675683 524.324317,937.193424 524.324317,944.000048 C524.324317,950.806576 518.806576,956.324317 512.000048,956.324317 C505.193424,956.324317 499.675683,950.806576 499.675683,944.000048 C499.675683,937.193424 505.193424,931.675683 512.000048,931.675683 Z M512.000048,952 C516.418299,952 520,948.418299 520,944.000048 C520,939.581701 516.418299,936 512.000048,936 C507.581701,936 504,939.581701 504,944.000048 C504,948.418299 507.581701,952 512.000048,952 Z M527.691284,931.188768 C527.691284,932.779365 526.401829,934.068724 524.811232,934.068724 C523.22073,934.068724 521.931276,932.779365 521.931276,931.188768 C521.931276,929.598171 523.22073,928.308716 524.811232,928.308716 C526.401829,928.308716 527.691284,929.598171 527.691284,931.188768 Z" id="Instagram"></path>
        </g>
    </g>
</svg>