<?xml version="1.0" encoding="UTF-8"?>
<svg width="44px" height="40px" viewBox="0 0 44 40" version="1.1" xmlns="http://www.w3.org/2000/svg" xmlns:xlink="http://www.w3.org/1999/xlink">
    <!-- Generator: Sketch 52.6 (67491) - http://www.bohemiancoding.com/sketch -->
    <title>LinkedIn-color</title>
    <desc>Created with Sketch.</desc>
    <g id="Page-1" stroke="none" stroke-width="1" fill="none" fill-rule="evenodd">
        <g id="Desktop" transform="translate(-490.000000, -924.000000)" fill="#FFFFFF">
            <path d="M534,964 L524.2754,964 L524.2754,949.9384 C524.2754,946.257796 522.754233,943.74515 519.409219,943.74515 C516.850659,943.74515 515.427799,945.440738 514.765522,947.074854 C514.517168,947.661395 514.555974,948.478453 514.555974,949.295511 L514.555974,964 L504.921919,964 C504.921919,964 505.046096,939.091247 504.921919,936.827047 L514.555974,936.827047 L514.555974,941.091631 C515.125118,939.226996 518.203669,936.565794 523.116416,936.565794 C529.21143,936.565794 534,940.474355 534,948.890824 L534,964 L534,964 Z M495.17921,933.428187 L495.117121,933.428187 C492.0127,933.428187 490,931.350964 490,928.717936 C490,926.033681 492.072201,924 495.238711,924 C498.402634,924 500.348071,926.028559 500.41016,928.710252 C500.41016,931.34328 498.402634,933.428187 495.17921,933.428187 L495.17921,933.428187 L495.17921,933.428187 Z M491.109831,936.827047 L499.685795,936.827047 L499.685795,964 L491.109831,964 L491.109831,936.827047 L491.109831,936.827047 Z" id="LinkedIn"></path>
        </g>
    </g>
</svg>